<svg width="29" height="28" viewBox="0 0 29 28" fill="none" xmlns="http://www.w3.org/2000/svg">
<path d="M19.3353 26.1921C20.4304 26.1921 21.3181 25.3044 21.3181 24.2093C21.3181 23.1142 20.4304 22.2265 19.3353 22.2265C18.2403 22.2265 17.3526 23.1142 17.3526 24.2093C17.3526 25.3044 18.2403 26.1921 19.3353 26.1921Z" fill="white"/>
<path d="M10.2712 26.1921C11.3662 26.1921 12.2539 25.3044 12.2539 24.2093C12.2539 23.1142 11.3662 22.2265 10.2712 22.2265C9.17609 22.2265 8.28836 23.1142 8.28836 24.2093C8.28836 25.3044 9.17609 26.1921 10.2712 26.1921Z" fill="white"/>
<path opacity="0.4" d="M6.40752 5.16313L6.18091 7.93903C6.13559 8.47156 6.55482 8.91343 7.08734 8.91343H24.4339C24.9098 8.91343 25.3064 8.55086 25.3403 8.07499C25.4876 6.06954 23.958 4.438 21.9526 4.438H8.0504C7.93709 3.93947 7.71049 3.46359 7.35925 3.06703C6.80407 2.46653 6.01097 2.1153 5.19519 2.1153H3.18973C2.72519 2.1153 2.33997 2.50052 2.33997 2.96506C2.33997 3.4296 2.72519 3.81483 3.18973 3.81483H5.1612C5.51244 3.81483 5.84101 3.96213 6.07895 4.2114C6.31688 4.47199 6.43018 4.81189 6.40752 5.16313Z" fill="white"/>
<path d="M24.162 10.613H6.78145C6.30558 10.613 5.92035 10.9755 5.87503 11.4401L5.46714 16.3687C5.30852 18.2949 6.82677 19.9604 8.76424 19.9604H21.3635C23.063 19.9604 24.5586 18.5668 24.6832 16.8673L25.0571 11.5761C25.1024 11.0549 24.6945 10.613 24.162 10.613Z" fill="white"/>
</svg>
